<svg width="342" height="60" viewBox="0 0 342 60" fill="none" xmlns="http://www.w3.org/2000/svg">
<path d="M26.104 9.072H40.504V15.792H26.104V9.072ZM26.104 21.168H40.504V28.016H26.104V21.168ZM0.0560002 4.016H8.504V11.888H19.768V4.016H28.088V32.496H0.0560002V4.016ZM8.504 18.48V25.84H19.768V18.48H8.504ZM38.648 0.431999H47.16V35.824H38.648V0.431999ZM27.064 36.848C39.608 36.848 47.352 41.136 47.352 48.304C47.352 55.536 39.608 59.696 27.064 59.696C14.52 59.696 6.776 55.536 6.776 48.304C6.776 41.136 14.52 36.848 27.064 36.848ZM27.064 43.376C19.384 43.376 15.288 44.912 15.288 48.304C15.288 51.632 19.384 53.232 27.064 53.232C34.808 53.232 38.904 51.632 38.904 48.304C38.904 44.912 34.808 43.376 27.064 43.376ZM56.435 33.136H110.067V40.048H56.435V33.136ZM78.835 38.064H87.283V59.696H78.835V38.064ZM85.043 21.488H106.099V28.208H85.043V21.488ZM85.043 3.824H105.715V10.608H93.555V26.992H85.043V3.824ZM61.043 3.888H81.779V10.608H69.555V26.48H61.043V3.888ZM61.043 21.424H64.755C71.603 21.424 76.467 21.232 82.291 20.144L82.867 26.928C76.915 28.144 71.795 28.208 64.755 28.208H61.043V21.424ZM155.95 0.495998H164.526V35.312H155.95V0.495998ZM145.454 14.832H157.166V21.68H145.454V14.832ZM125.102 3.952H132.91C132.91 16.496 130.094 24.88 119.982 32.176L114.542 26.928C122.542 21.296 125.102 15.856 125.102 5.296V3.952ZM117.166 3.952H129.134V10.672H117.166V3.952ZM141.678 3.952H149.422C149.422 16.88 146.734 25.968 137.262 33.968L131.374 29.168C139.182 22.768 141.678 16.432 141.678 5.168V3.952ZM134.958 3.952H145.39V10.672H134.958V3.952ZM144.814 36.016C156.91 36.016 164.91 40.56 164.91 47.792C164.91 55.152 156.91 59.696 144.814 59.696C132.718 59.696 124.782 55.152 124.782 47.792C124.782 40.56 132.718 36.016 144.814 36.016ZM144.814 42.48C137.454 42.48 133.166 44.336 133.166 47.792C133.166 51.376 137.454 53.232 144.814 53.232C152.174 53.232 156.462 51.376 156.462 47.792C156.462 44.336 152.174 42.48 144.814 42.48ZM212.329 0.431999H220.841V29.68H212.329V0.431999ZM218.473 11.44H228.713V18.416H218.473V11.44ZM176.553 2.992H185.065V25.968H176.553V2.992ZM176.553 21.104H181.545C189.481 21.104 198.249 20.528 207.529 18.736L208.489 25.648C198.889 27.568 189.865 28.08 181.545 28.08H176.553V21.104ZM181.673 32.112H220.841V48.56H190.313V55.536H181.801V42.224H212.329V38.768H181.673V32.112ZM181.801 52.336H222.569V59.056H181.801V52.336ZM273.892 0.367996H282.404V59.824H273.892V0.367996ZM236.26 39.088H241.508C252.004 39.088 260.388 38.704 269.796 37.104L270.628 43.952C261.028 45.68 252.324 46 241.508 46H236.26V39.088ZM236.196 5.424H264.164V28.336H244.9V41.648H236.26V21.616H255.46V12.208H236.196V5.424ZM332.767 0.431999H341.343V59.696H332.767V0.431999ZM315.295 6.576H323.743C323.743 24.688 317.599 39.536 296.543 49.712L292.127 42.928C309.151 34.736 315.295 23.984 315.295 8.112V6.576ZM295.263 6.576H319.327V13.296H295.263V6.576Z" fill="white"/>
</svg>
