<svg width="344" height="60" viewBox="0 0 344 60" fill="none" xmlns="http://www.w3.org/2000/svg">
<path d="M36.704 0.495998H45.216V44.08H36.704V0.495998ZM42.784 17.136H53.088V24.112H42.784V17.136ZM7.008 51.888H47.328V58.672H7.008V51.888ZM7.008 39.664H15.52V53.36H7.008V39.664ZM0.288 4.656H8.736V13.168H20.32V4.656H28.768V34.736H0.288V4.656ZM8.736 19.632V28.08H20.32V19.632H8.736ZM95.579 0.495998H104.091V44.08H95.579V0.495998ZM101.659 17.136H111.963V24.112H101.659V17.136ZM65.883 51.888H106.203V58.672H65.883V51.888ZM65.883 39.664H74.395V53.36H65.883V39.664ZM59.163 4.656H67.611V13.168H79.195V4.656H87.643V34.736H59.163V4.656ZM67.611 19.632V28.08H79.195V19.632H67.611ZM116.374 28.272H170.006V35.056H116.374V28.272ZM138.966 19.376H147.414V30.896H138.966V19.376ZM122.838 16.688H163.926V23.408H122.838V16.688ZM122.838 2.992H163.606V9.648H131.286V20.976H122.838V2.992ZM142.998 38C155.798 38 163.542 41.904 163.542 48.88C163.542 55.856 155.798 59.76 142.998 59.76C130.198 59.76 122.39 55.856 122.39 48.88C122.39 41.904 130.198 38 142.998 38ZM142.998 44.4C135.062 44.4 131.03 45.872 131.03 48.88C131.03 51.952 135.062 53.296 142.998 53.296C150.934 53.296 154.966 51.952 154.966 48.88C154.966 45.872 150.934 44.4 142.998 44.4ZM197.649 28.912H206.161V37.168H197.649V28.912ZM175.185 23.92H228.753V30.576H175.185V23.92ZM181.777 2.16H221.969V20.784H181.777V2.16ZM213.585 8.752H190.161V14.256H213.585V8.752ZM181.329 34.288H222.289V49.52H189.777V54.768H181.393V43.632H213.905V40.624H181.329V34.288ZM181.393 52.912H223.825V59.312H181.393V52.912ZM247.372 4.976H254.284V13.616C254.284 28.272 249.164 42.032 237.964 47.536L232.844 40.688C242.828 36.016 247.372 24.624 247.372 13.616V4.976ZM249.1 4.976H255.884V13.616C255.884 24.24 260.108 35.056 269.58 39.664L264.46 46.448C253.772 41.008 249.1 27.824 249.1 13.616V4.976ZM271.948 0.431999H280.524V59.696H271.948V0.431999ZM278.604 23.216H289.1V30.32H278.604V23.216ZM324.679 15.728H338.503V22.576H324.679V15.728ZM334.023 0.495998H342.535V43.696H334.023V0.495998ZM303.431 51.888H343.879V58.672H303.431V51.888ZM303.431 40.048H311.943V55.92H303.431V40.048ZM306.631 8.24H313.543V11.952C313.543 23.088 308.295 33.392 296.903 37.168L292.615 30.384C302.407 27.184 306.631 19.44 306.631 11.952V8.24ZM308.423 8.24H315.271V11.952C315.271 18.864 319.303 26.224 328.647 29.36L324.487 36.016C313.479 32.368 308.423 22.512 308.423 11.952V8.24ZM294.919 4.464H326.791V11.184H294.919V4.464Z" fill="white"/>
</svg>
