<svg width="347" height="60" viewBox="0 0 347 60" fill="none" xmlns="http://www.w3.org/2000/svg">
<path d="M38.704 0.495998H47.216V44.784H38.704V0.495998ZM44.784 18.544H55.088V25.52H44.784V18.544ZM0.56 6.64H35.44V13.296H0.56V6.64ZM18.032 15.408C26.544 15.408 32.56 20.08 32.56 26.864C32.56 33.648 26.544 38.256 18.032 38.256C9.456 38.256 3.44 33.648 3.44 26.864C3.44 20.08 9.456 15.408 18.032 15.408ZM18.032 21.872C14.256 21.872 11.632 23.664 11.632 26.864C11.632 30.064 14.256 31.792 18.032 31.792C21.808 31.792 24.432 30.064 24.432 26.864C24.432 23.664 21.808 21.872 18.032 21.872ZM13.744 0.367996H22.256V9.904H13.744V0.367996ZM9.008 51.888H49.328V58.672H9.008V51.888ZM9.008 41.456H17.52V54.832H9.008V41.456ZM81.963 28.656H90.475V36.912H81.963V28.656ZM59.435 23.984H113.003V30.64H59.435V23.984ZM65.579 34.352H106.539V49.584H74.027V54.768H65.643V43.76H98.155V40.56H65.579V34.352ZM65.643 52.976H108.075V59.312H65.643V52.976ZM81.131 4.592H88.555V6.064C88.555 14.512 80.171 21.232 64.427 22.384L61.803 15.984C75.307 15.088 81.131 10.352 81.131 6.064V4.592ZM83.883 4.592H91.307V6.064C91.307 10.352 97.131 15.088 110.699 15.984L108.075 22.384C92.331 21.232 83.883 14.576 83.883 6.064V4.592ZM64.299 2.032H108.203V8.624H64.299V2.032ZM124.902 2.8H162.47V9.52H124.902V2.8ZM118.374 21.296H172.006V28.016H118.374V21.296ZM157.35 2.8H165.734V6.832C165.734 11.056 165.734 16.432 164.198 23.28L155.814 22.512C157.35 15.792 157.35 10.992 157.35 6.832V2.8ZM124.326 32.048H165.542V48.752H132.902V54.768H124.39V42.48H157.094V38.64H124.326V32.048ZM124.39 52.72H167.078V59.312H124.39V52.72ZM191.585 32.368H200.161V56.56H191.585V32.368ZM219.105 0.431999H227.617V59.696H219.105V0.431999ZM177.889 34.48L176.865 27.568C188.641 27.568 202.977 27.376 215.777 25.968L216.417 32.24C203.297 34.16 189.473 34.416 177.889 34.48ZM181.665 4.464H204.897V11.312H181.665V4.464ZM201.825 4.464H210.273V7.856C210.273 12.464 210.273 19.312 208.417 28.912L199.969 28.272C201.825 18.864 201.825 12.336 201.825 7.856V4.464ZM268.188 14.768H279.452V21.68H268.188V14.768ZM277.148 0.431999H285.66V35.632H277.148V0.431999ZM265.564 36.912C278.108 36.912 285.852 41.2 285.852 48.368C285.852 55.6 278.108 59.76 265.564 59.76C253.02 59.76 245.276 55.6 245.276 48.368C245.276 41.2 253.02 36.912 265.564 36.912ZM265.564 43.376C257.884 43.376 253.788 44.976 253.788 48.368C253.788 51.696 257.884 53.296 265.564 53.296C273.308 53.296 277.404 51.696 277.404 48.368C277.404 44.976 273.308 43.376 265.564 43.376ZM249.756 6.384H256.668V10.096C256.668 21.424 251.42 31.792 240.092 35.632L235.74 28.912C245.532 25.584 249.756 17.712 249.756 10.096V6.384ZM251.548 6.384H258.396V10.096C258.396 17.072 262.428 24.304 271.772 27.44L267.612 34.16C256.604 30.512 251.548 20.656 251.548 10.096V6.384ZM238.044 4.016H269.916V10.8H238.044V4.016ZM310.359 30.832H318.871V43.824H310.359V30.832ZM336.343 0.431999H344.855V45.296H336.343V0.431999ZM302.167 51.888H346.135V58.672H302.167V51.888ZM302.167 41.072H310.679V53.68H302.167V41.072ZM295.767 33.392L294.743 26.608C305.559 26.608 320.023 26.48 332.439 24.88L332.951 30.96C320.343 33.072 306.455 33.392 295.767 33.392ZM325.143 34.864H338.199V40.688H325.143V34.864ZM313.815 2.48C322.455 2.48 328.535 6.768 328.535 13.04C328.535 19.376 322.455 23.6 313.815 23.6C305.111 23.6 299.031 19.376 299.031 13.04C299.031 6.768 305.111 2.48 313.815 2.48ZM313.815 8.688C309.847 8.688 307.095 10.16 307.095 13.04C307.095 15.92 309.847 17.392 313.815 17.392C317.719 17.392 320.471 15.92 320.471 13.04C320.471 10.16 317.719 8.688 313.815 8.688Z" fill="white"/>
</svg>
